<svg xmlns="http://www.w3.org/2000/svg" width="44.919" height="49.747" viewBox="0 0 44.919 49.747">
  <path id="Path_39" data-name="Path 39" d="M969.76-395.867l.032-.029,19.961-17.337a2.5,2.5,0,0,1,3.279,0l10.908,9.475a2.507,2.507,0,0,1,.25,3.527,2.5,2.5,0,0,1-3.53.248l-9.267-8.051-17.462,15.165v23.77h34.919v-24.91a2.5,2.5,0,0,1,2.5-2.5,2.5,2.5,0,0,1,2.5,2.5v27.41a2.494,2.494,0,0,1-2.5,2.5H971.431a2.5,2.5,0,0,1-2.5-2.5v-27.538l0-.042v-.015l0-.07.005-.04a2.493,2.493,0,0,1,.141-.581l.038-.1.005-.011,0-.007.021-.046.021-.046,0-.007,0-.011.048-.092a2.467,2.467,0,0,1,.346-.487l.027-.03.05-.05.007-.007,0,0,.029-.03.043-.039.011-.01Z" transform="translate(-968.931 413.846)" fill-rule="evenodd"/>
</svg>
